name ./resultDataOpenSim/trcMotMarkerGrf/sub09/grf-01-03.mot
datacolumns 19
datarows 15
range 1.39200000 1.44800000
endheader

                time	     ground_force_vx	     ground_force_vy	     ground_force_vz	     ground_force_px	     ground_force_py	     ground_force_pz	   l_ground_force_vx	   l_ground_force_vy	   l_ground_force_vz	   l_ground_force_px	   l_ground_force_py	   l_ground_force_pz	     ground_torque_x	     ground_torque_y	     ground_torque_z	   l_ground_torque_x	   l_ground_torque_y	   l_ground_torque_z	
          1.39200000	        -37.99194440	        478.13181793	         -4.88105513	          0.98578255	          0.00000000	          0.09176371	          0.00000000	          0.00000000	          0.00000000	          0.00000000	          0.00000000	          0.00000000	          0.00000000	          0.60302127	          0.00000000	          0.00000000	          0.00000000	          0.00000000	
          1.39600000	        -38.95877988	        472.52696474	         -5.16836285	          0.98719369	          0.00000000	          0.09141145	          0.00000000	          0.00000000	          0.00000000	          0.00000000	          0.00000000	          0.00000000	          0.00000000	          0.77918163	          0.00000000	          0.00000000	          0.00000000	          0.00000000	
          1.40000000	        -40.83597842	        467.20183204	         -6.81429738	          0.98867575	          0.00000000	          0.09112545	          0.00000000	          0.00000000	          0.00000000	          0.00000000	          0.00000000	          0.00000000	          0.00000000	          0.92107919	          0.00000000	          0.00000000	          0.00000000	          0.00000000	
          1.40400000	        -42.62606849	        462.08716608	         -9.34185768	          0.99007929	          0.00000000	          0.09090971	          0.00000000	          0.00000000	          0.00000000	          0.00000000	          0.00000000	          0.00000000	          0.00000000	          1.01318674	          0.00000000	          0.00000000	          0.00000000	          0.00000000	
          1.40800000	        -43.41231619	        457.17076001	        -12.12769065	          0.99123856	          0.00000000	          0.09074816	          0.00000000	          0.00000000	          0.00000000	          0.00000000	          0.00000000	          0.00000000	          0.00000000	          1.05295841	          0.00000000	          0.00000000	          0.00000000	          0.00000000	
          1.41200000	        -42.61021657	        452.49528646	        -14.53839649	          0.99203561	          0.00000000	          0.09061366	          0.00000000	          0.00000000	          0.00000000	          0.00000000	          0.00000000	          0.00000000	          0.00000000	          1.05231809	          0.00000000	          0.00000000	          0.00000000	          0.00000000	
          1.41600000	        -40.11145334	        448.09958050	        -16.07091586	          0.99245004	          0.00000000	          0.09047868	          0.00000000	          0.00000000	          0.00000000	          0.00000000	          0.00000000	          0.00000000	          0.00000000	          1.03342606	          0.00000000	          0.00000000	          0.00000000	          0.00000000	
          1.42000000	        -36.28201625	        443.97366525	        -16.44417763	          0.99255826	          0.00000000	          0.09032323	          0.00000000	          0.00000000	          0.00000000	          0.00000000	          0.00000000	          0.00000000	          0.00000000	          1.02205782	          0.00000000	          0.00000000	          0.00000000	          0.00000000	
          1.42400000	        -31.83450286	        440.07893725	        -15.63098194	          0.99249580	          0.00000000	          0.09013888	          0.00000000	          0.00000000	          0.00000000	          0.00000000	          0.00000000	          0.00000000	          0.00000000	          1.04197582	          0.00000000	          0.00000000	          0.00000000	          0.00000000	
          1.42800000	        -27.62489976	        436.40367001	        -13.83790364	          0.99240510	          0.00000000	          0.08992491	          0.00000000	          0.00000000	          0.00000000	          0.00000000	          0.00000000	          0.00000000	          0.00000000	          1.11143128	          0.00000000	          0.00000000	          0.00000000	          0.00000000	
          1.43200000	        -24.42875512	        432.99128090	        -11.43856629	          0.99242841	          0.00000000	          0.08968866	          0.00000000	          0.00000000	          0.00000000	          0.00000000	          0.00000000	          0.00000000	          0.00000000	          1.24073633	          0.00000000	          0.00000000	          0.00000000	          0.00000000	
          1.43600000	        -22.74610995	        429.92186336	         -8.88661562	          0.99266799	          0.00000000	          0.08943768	          0.00000000	          0.00000000	          0.00000000	          0.00000000	          0.00000000	          0.00000000	          0.00000000	          1.42959736	          0.00000000	          0.00000000	          0.00000000	          0.00000000	
          1.44000000	        -22.67479502	        427.27333019	         -6.64174547	          0.99314959	          0.00000000	          0.08918393	          0.00000000	          0.00000000	          0.00000000	          0.00000000	          0.00000000	          0.00000000	          0.00000000	          1.66460329	          0.00000000	          0.00000000	          0.00000000	          0.00000000	
          1.44400000	        -23.87957656	        425.09510252	         -5.10766096	          0.99382143	          0.00000000	          0.08895108	          0.00000000	          0.00000000	          0.00000000	          0.00000000	          0.00000000	          0.00000000	          0.00000000	          1.91911855	          0.00000000	          0.00000000	          0.00000000	          0.00000000	
          1.44800000	        -25.67161005	        423.40760005	         -4.56624823	          0.99455552	          0.00000000	          0.08876578	          0.00000000	          0.00000000	          0.00000000	          0.00000000	          0.00000000	          0.00000000	          0.00000000	          2.15785279	          0.00000000	          0.00000000	          0.00000000	          0.00000000	
